#format: frame checksums
#version: 2
#hash: MD5
#tb 0: 1001/30000
#media_type 0: video
#codec_id 0: rawvideo
#dimensions 0: 196x196
#sar 0: 1/1
#stream#, dts,        pts, duration,     size, hash
0,          0,          0,        1,    57624, 14cc1c34b8106e35238d4650a9123852
0,          1,          1,        1,    57624, 66e0bb9136ea24e30b781a4610b428a1
0,          2,          2,        1,    57624, 8e36679c20a3a3e974fdacf7a9343817
0,          3,          3,        1,    57624, 2669fd03ce7ce01f4fc9db23e06fffdb
0,          4,          4,        1,    57624, 46ced29eb6edf2136c8ee19e9a87380f
0,          5,          5,        1,    57624, 4e4138b65a30bc56cd18663a1799f98f
0,          6,          6,        1,    57624, 580b0431b5f808c67e50ed34e62f39ad
0,          7,          7,        1,    57624, 1339bbe256d8499ab17d6a550f7dac70
0,          8,          8,        1,    57624, 89b9dac29a4c4136249c40a3763dc114
0,          9,          9,        1,    57624, a735d341d7df9dcd0b6e51a82b813f61
